<svg width="400" height="300" viewBox="0 0 400 300" fill="none" xmlns="http://www.w3.org/2000/svg">
  <!-- Background -->
  <rect width="400" height="300" fill="#f8f9fa"/>
  
  <!-- Main Tower -->
  <rect x="150" y="50" width="100" height="200" fill="#e9ecef" stroke="#6c757d" stroke-width="2"/>
  
  <!-- Tower Windows -->
  <rect x="160" y="70" width="15" height="20" fill="#007bff" opacity="0.8"/>
  <rect x="180" y="70" width="15" height="20" fill="#007bff" opacity="0.8"/>
  <rect x="205" y="70" width="15" height="20" fill="#007bff" opacity="0.8"/>
  <rect x="225" y="70" width="15" height="20" fill="#007bff" opacity="0.8"/>
  
  <rect x="160" y="100" width="15" height="20" fill="#007bff" opacity="0.8"/>
  <rect x="180" y="100" width="15" height="20" fill="#007bff" opacity="0.8"/>
  <rect x="205" y="100" width="15" height="20" fill="#007bff" opacity="0.8"/>
  <rect x="225" y="100" width="15" height="20" fill="#007bff" opacity="0.8"/>
  
  <rect x="160" y="130" width="15" height="20" fill="#007bff" opacity="0.8"/>
  <rect x="180" y="130" width="15" height="20" fill="#007bff" opacity="0.8"/>
  <rect x="205" y="130" width="15" height="20" fill="#007bff" opacity="0.8"/>
  <rect x="225" y="130" width="15" height="20" fill="#007bff" opacity="0.8"/>
  
  <rect x="160" y="160" width="15" height="20" fill="#007bff" opacity="0.8"/>
  <rect x="180" y="160" width="15" height="20" fill="#007bff" opacity="0.8"/>
  <rect x="205" y="160" width="15" height="20" fill="#007bff" opacity="0.8"/>
  <rect x="225" y="160" width="15" height="20" fill="#007bff" opacity="0.8"/>
  
  <rect x="160" y="190" width="15" height="20" fill="#007bff" opacity="0.8"/>
  <rect x="180" y="190" width="15" height="20" fill="#007bff" opacity="0.8"/>
  <rect x="205" y="190" width="15" height="20" fill="#007bff" opacity="0.8"/>
  <rect x="225" y="190" width="15" height="20" fill="#007bff" opacity="0.8"/>
  
  <rect x="160" y="220" width="15" height="20" fill="#007bff" opacity="0.8"/>
  <rect x="180" y="220" width="15" height="20" fill="#007bff" opacity="0.8"/>
  <rect x="205" y="220" width="15" height="20" fill="#007bff" opacity="0.8"/>
  <rect x="225" y="220" width="15" height="20" fill="#007bff" opacity="0.8"/>
  
  <!-- HVAC Equipment on Roof -->
  <rect x="160" y="35" width="80" height="15" fill="#6c757d" rx="3"/>
  <rect x="170" y="30" width="20" height="10" fill="#495057" rx="2"/>
  <rect x="200" y="30" width="20" height="10" fill="#495057" rx="2"/>
  <rect x="230" y="30" width="20" height="10" fill="#495057" rx="2"/>
  
  <!-- Air Ducts -->
  <rect x="140" y="60" width="8" height="180" fill="#6c757d"/>
  <rect x="252" y="60" width="8" height="180" fill="#6c757d"/>
  
  <!-- Ventilation Grilles -->
  <rect x="145" y="80" width="6" height="15" fill="#28a745"/>
  <rect x="145" y="110" width="6" height="15" fill="#28a745"/>
  <rect x="145" y="140" width="6" height="15" fill="#28a745"/>
  <rect x="145" y="170" width="6" height="15" fill="#28a745"/>
  <rect x="145" y="200" width="6" height="15" fill="#28a745"/>
  
  <rect x="249" y="80" width="6" height="15" fill="#28a745"/>
  <rect x="249" y="110" width="6" height="15" fill="#28a745"/>
  <rect x="249" y="140" width="6" height="15" fill="#28a745"/>
  <rect x="249" y="170" width="6" height="15" fill="#28a745"/>
  <rect x="249" y="200" width="6" height="15" fill="#28a745"/>
  
  <!-- Cooling Tower -->
  <rect x="280" y="120" width="40" height="60" fill="#adb5bd" stroke="#6c757d" stroke-width="1"/>
  <rect x="285" y="110" width="30" height="10" fill="#495057"/>
  
  <!-- Chiller Unit -->
  <rect x="80" y="180" width="50" height="30" fill="#17a2b8" stroke="#0c5460" stroke-width="1"/>
  <circle cx="105" cy="195" r="8" fill="#0c5460"/>
  
  <!-- Electrical Conduits -->
  <line x1="70" y1="260" x2="330" y2="260" stroke="#ffc107" stroke-width="3"/>
  <circle cx="120" cy="260" r="3" fill="#ffc107"/>
  <circle cx="200" cy="260" r="3" fill="#ffc107"/>
  <circle cx="280" cy="260" r="3" fill="#ffc107"/>
  
  <!-- Title -->
  <text x="200" y="25" text-anchor="middle" font-family="Arial, sans-serif" font-size="18" font-weight="bold" fill="#495057">برج تجاري - جدة</text>
  <text x="200" y="285" text-anchor="middle" font-family="Arial, sans-serif" font-size="14" fill="#6c757d">أنظمة التكييف والتهوية المركزية</text>
</svg>